<svg xmlns="http://www.w3.org/2000/svg" width="1200" height="650" viewBox="0 0 1200 650" role="img" aria-labelledby="title desc">
  <title id="title">Measured project performance</title>
  <desc id="desc">Offline classification accuracy 85.3 percent, data quality precision 98.0 percent, and data quality recall 97.8 percent.</desc>
  <defs>
    <linearGradient id="g1" x1="0" y1="1" x2="0" y2="0"><stop stop-color="#0c5f4c"/><stop offset="1" stop-color="#25ae83"/></linearGradient>
    <linearGradient id="g2" x1="0" y1="1" x2="0" y2="0"><stop stop-color="#174f82"/><stop offset="1" stop-color="#2e7fc2"/></linearGradient>
    <filter id="shadow" x="-20%" y="-20%" width="140%" height="150%"><feDropShadow dx="0" dy="8" stdDeviation="9" flood-color="#16332b" flood-opacity=".12"/></filter>
  </defs>
  <rect width="1200" height="650" rx="26" fill="#f7faf9"/>
  <text x="65" y="75" font-family="Arial,sans-serif" font-size="34" font-weight="800" fill="#10221e">MEASURED PERFORMANCE</text>
  <text x="65" y="111" font-family="Arial,sans-serif" font-size="19" fill="#60716b">Verified against the included labelled ground truth and defect catalogue</text>
  <line x1="120" y1="510" x2="1110" y2="510" stroke="#a9bbb5" stroke-width="2"/>
  <line x1="120" y1="160" x2="120" y2="510" stroke="#a9bbb5" stroke-width="2"/>
  <g font-family="Arial,sans-serif" font-size="15" fill="#71817c">
    <text x="78" y="515">0</text><text x="67" y="447">20</text><text x="67" y="377">40</text><text x="67" y="307">60</text><text x="67" y="237">80</text><text x="57" y="167">100</text>
  </g>
  <g stroke="#dce6e2" stroke-width="1"><line x1="120" y1="440" x2="1110" y2="440"/><line x1="120" y1="370" x2="1110" y2="370"/><line x1="120" y1="300" x2="1110" y2="300"/><line x1="120" y1="230" x2="1110" y2="230"/><line x1="120" y1="160" x2="1110" y2="160"/></g>
  <g filter="url(#shadow)">
    <path d="M210 510V211h205v299z" fill="url(#g1)" rx="14"/>
    <path d="M500 510V167h205v343z" fill="url(#g2)" rx="14"/>
    <path d="M790 510V167h205v343z" fill="url(#g2)" rx="14"/>
  </g>
  <g font-family="Arial,sans-serif" text-anchor="middle">
    <text x="312" y="191" font-size="31" font-weight="800" fill="#0c5f4c">85.3%</text>
    <text x="602" y="147" font-size="31" font-weight="800" fill="#174f82">98.0%</text>
    <text x="892" y="147" font-size="31" font-weight="800" fill="#174f82">97.8%</text>
    <text x="312" y="550" font-size="19" font-weight="700" fill="#263b35">Classification accuracy</text><text x="312" y="577" font-size="16" fill="#60716b">offline baseline · n=11,543</text>
    <text x="602" y="550" font-size="19" font-weight="700" fill="#263b35">Data-quality precision</text><text x="602" y="577" font-size="16" fill="#60716b">1,023 catalogued defects</text>
    <text x="892" y="550" font-size="19" font-weight="700" fill="#263b35">Data-quality recall</text><text x="892" y="577" font-size="16" fill="#60716b">1,023 catalogued defects</text>
  </g>
  <text x="1140" y="623" text-anchor="end" font-family="Arial,sans-serif" font-size="15" fill="#71817c">Source: project technical report · June 2026</text>
</svg>
